<?xml version="1.0" encoding="UTF-8" standalone="no"?>
<!-- Created with Inkscape (http://www.inkscape.org/) -->

<svg
   width="8.5in"
   height="11in"
   viewBox="0 0 215.9 279.4"
   version="1.1"
   id="svg5"
   inkscape:version="1.1.2 (0a00cf5339, 2022-02-04)"
   sodipodi:docname="tech_rider.svg"
   xmlns:inkscape="http://www.inkscape.org/namespaces/inkscape"
   xmlns:sodipodi="http://sodipodi.sourceforge.net/DTD/sodipodi-0.dtd"
   xmlns="http://www.w3.org/2000/svg"
   xmlns:svg="http://www.w3.org/2000/svg">
  <sodipodi:namedview
     id="namedview7"
     pagecolor="#ffffff"
     bordercolor="#666666"
     borderopacity="1.0"
     inkscape:pageshadow="2"
     inkscape:pageopacity="0.0"
     inkscape:pagecheckerboard="0"
     inkscape:document-units="mm"
     showgrid="false"
     inkscape:zoom="0.75187991"
     inkscape:cx="407.64489"
     inkscape:cy="713.5448"
     inkscape:window-width="1920"
     inkscape:window-height="1016"
     inkscape:window-x="0"
     inkscape:window-y="27"
     inkscape:window-maximized="1"
     inkscape:current-layer="layer1"
     units="in" />
  <defs
     id="defs2" />
  <g
     inkscape:label="Layer 1"
     inkscape:groupmode="layer"
     id="layer1">
    <rect
       style="fill:none;stroke:#000000;stroke-width:0.860344;stroke-opacity:1"
       id="rect866"
       width="189.63966"
       height="126.13966"
       x="13.130171"
       y="13.130171" />
    <text
       xml:space="preserve"
       style="font-style:normal;font-weight:normal;font-size:10.5833px;line-height:1.25;font-family:sans-serif;fill:#000000;fill-opacity:1;stroke:none;stroke-width:0.264583"
       x="93.779305"
       y="134.89526"
       id="text2262"><tspan
         sodipodi:role="line"
         id="tspan2260"
         style="stroke-width:0.264583"
         x="93.779305"
         y="134.89526">Stage</tspan></text>
    <text
       xml:space="preserve"
       style="font-style:normal;font-weight:normal;font-size:10.5833px;line-height:1.25;font-family:sans-serif;fill:#000000;fill-opacity:1;stroke:none;stroke-width:0.264583"
       x="84.145531"
       y="172.33395"
       id="text2262-8"><tspan
         sodipodi:role="line"
         id="tspan2260-9"
         style="stroke-width:0.264583"
         x="84.145531"
         y="172.33395">Audience</tspan></text>
    <rect
       style="fill:#ffffff;stroke:#000000;stroke-width:0.515289;stroke-opacity:1;fill-opacity:1"
       id="rect2782"
       width="24.88471"
       height="24.884712"
       x="25.657644"
       y="127.25764" />
    <text
       xml:space="preserve"
       style="font-style:normal;font-weight:normal;font-size:5.64444px;line-height:1.25;font-family:sans-serif;fill:#000000;fill-opacity:1;stroke:none;stroke-width:0.264583"
       x="38.227165"
       y="134.13405"
       id="text5596"><tspan
         sodipodi:role="line"
         id="tspan5594"
         style="font-size:5.64444px;text-align:center;text-anchor:middle;stroke-width:0.264583"
         x="38.227165"
         y="134.13405">House </tspan><tspan
         sodipodi:role="line"
         style="font-size:5.64444px;text-align:center;text-anchor:middle;stroke-width:0.264583"
         x="38.227165"
         y="141.18961"
         id="tspan10782">Left </tspan><tspan
         sodipodi:role="line"
         style="font-size:5.64444px;text-align:center;text-anchor:middle;stroke-width:0.264583"
         x="38.227165"
         y="148.24515"
         id="tspan10784">Speaker</tspan></text>
    <text
       xml:space="preserve"
       style="font-style:normal;font-weight:normal;font-size:5.64444px;line-height:1.25;font-family:sans-serif;fill:#000000;fill-opacity:1;stroke:none;stroke-width:0.264583"
       x="107.49735"
       y="65.262863"
       id="text5596-9"><tspan
         sodipodi:role="line"
         style="font-size:5.64444px;text-align:center;text-anchor:middle;stroke-width:0.264583"
         x="107.49735"
         y="65.262863"
         id="tspan10784-7">Guitarist</tspan></text>
    <text
       xml:space="preserve"
       style="font-style:normal;font-weight:normal;font-size:5.64444px;line-height:1.25;font-family:sans-serif;fill:#000000;fill-opacity:1;stroke:none;stroke-width:0.264583"
       x="105.24114"
       y="26.691072"
       id="text5596-9-8"><tspan
         sodipodi:role="line"
         style="font-size:5.64444px;text-align:center;text-anchor:middle;stroke-width:0.264583"
         x="105.24114"
         y="26.691072"
         id="tspan10784-7-7">Projector/Television</tspan></text>
    <text
       xml:space="preserve"
       style="font-style:normal;font-weight:normal;font-size:5.64444px;line-height:1.25;font-family:sans-serif;fill:#000000;fill-opacity:1;stroke:none;stroke-width:0.264583"
       x="106.84734"
       y="106.26588"
       id="text5596-9-3"><tspan
         sodipodi:role="line"
         style="font-size:5.64444px;text-align:center;text-anchor:middle;stroke-width:0.264583"
         x="106.84734"
         y="106.26588"
         id="tspan10784-7-6">Microphones</tspan></text>
    <text
       xml:space="preserve"
       style="font-style:normal;font-weight:normal;font-size:5.64444px;line-height:1.25;font-family:sans-serif;fill:#000000;fill-opacity:1;stroke:none;stroke-width:0.264583"
       x="59.736835"
       y="63.718311"
       id="text5596-9-3-3"><tspan
         sodipodi:role="line"
         style="font-size:5.64444px;text-align:center;text-anchor:middle;stroke-width:0.264583"
         x="59.736835"
         y="63.718311"
         id="tspan10784-7-6-612">Optional</tspan><tspan
         sodipodi:role="line"
         style="font-size:5.64444px;text-align:center;text-anchor:middle;stroke-width:0.264583"
         x="59.736835"
         y="70.773865"
         id="tspan27268">In-Ear</tspan><tspan
         sodipodi:role="line"
         style="font-size:5.64444px;text-align:center;text-anchor:middle;stroke-width:0.264583"
         x="59.736835"
         y="77.829414"
         id="tspan27270">Monitor</tspan></text>
    <text
       xml:space="preserve"
       style="font-style:normal;font-weight:normal;font-size:5.64444px;line-height:1.25;font-family:sans-serif;fill:#000000;fill-opacity:1;stroke:none;stroke-width:0.264583"
       x="136.48236"
       y="106.55807"
       id="text5596-9-3-20"><tspan
         sodipodi:role="line"
         style="font-size:5.64444px;text-align:center;text-anchor:middle;stroke-width:0.264583"
         x="136.48236"
         y="106.55807"
         id="tspan10784-7-6-2">XLR</tspan></text>
    <text
       xml:space="preserve"
       style="font-style:normal;font-weight:normal;font-size:5.64444px;line-height:1.25;font-family:sans-serif;fill:#000000;fill-opacity:1;stroke:none;stroke-width:0.264583"
       x="163.60156"
       y="87.184479"
       id="text5596-9-3-20-3"><tspan
         sodipodi:role="line"
         style="font-size:5.64444px;text-align:center;text-anchor:middle;stroke-width:0.264583"
         x="163.60156"
         y="87.184479"
         id="tspan10784-7-6-2-7">USB</tspan></text>
    <text
       xml:space="preserve"
       style="font-style:normal;font-weight:normal;font-size:5.64444px;line-height:1.25;font-family:sans-serif;fill:#000000;fill-opacity:1;stroke:none;stroke-width:0.264583"
       x="190.20316"
       y="105.9684"
       id="text5596-9-3-20-3-2"><tspan
         sodipodi:role="line"
         style="font-size:5.64444px;text-align:center;text-anchor:middle;stroke-width:0.264583"
         x="190.20316"
         y="105.9684"
         id="tspan10784-7-6-2-7-2">House</tspan><tspan
         sodipodi:role="line"
         style="font-size:5.64444px;text-align:center;text-anchor:middle;stroke-width:0.264583"
         x="190.20316"
         y="113.02395"
         id="tspan25961">Mix</tspan></text>
    <text
       xml:space="preserve"
       style="font-style:normal;font-weight:normal;font-size:5.64444px;line-height:1.25;font-family:sans-serif;fill:#000000;fill-opacity:1;stroke:none;stroke-width:0.264583"
       x="152.76994"
       y="69.90284"
       id="text5596-9-3-2"><tspan
         sodipodi:role="line"
         style="font-size:5.64444px;text-align:center;text-anchor:middle;stroke-width:0.264583"
         x="152.76994"
         y="69.90284"
         id="tspan10784-7-6-61">Computer</tspan><tspan
         sodipodi:role="line"
         style="font-size:5.64444px;text-align:center;text-anchor:middle;stroke-width:0.264583"
         x="152.76994"
         y="76.958389"
         id="tspan17129">(Linux)</tspan></text>
    <text
       xml:space="preserve"
       style="font-style:normal;font-weight:normal;font-size:5.64444px;line-height:1.25;font-family:sans-serif;fill:#000000;fill-opacity:1;stroke:none;stroke-width:0.264583"
       x="142.35902"
       y="94.763313"
       id="text5596-9-3-0"><tspan
         sodipodi:role="line"
         style="font-size:5.64444px;text-align:center;text-anchor:middle;stroke-width:0.264583"
         x="142.35902"
         y="94.763313"
         id="tspan10784-7-6-6">Interface</tspan></text>
    <rect
       style="fill:#ffffff;fill-opacity:1;stroke:#000000;stroke-width:0.515289;stroke-opacity:1"
       id="rect2782-3"
       width="24.88471"
       height="24.884712"
       x="165.35765"
       y="127.25764" />
    <text
       xml:space="preserve"
       style="font-style:normal;font-weight:normal;font-size:5.64444px;line-height:1.25;font-family:sans-serif;fill:#000000;fill-opacity:1;stroke:none;stroke-width:0.264583"
       x="177.92717"
       y="134.13405"
       id="text5596-6"><tspan
         sodipodi:role="line"
         id="tspan5594-7"
         style="font-size:5.64444px;text-align:center;text-anchor:middle;stroke-width:0.264583"
         x="177.92717"
         y="134.13405">House </tspan><tspan
         sodipodi:role="line"
         style="font-size:5.64444px;text-align:center;text-anchor:middle;stroke-width:0.264583"
         x="177.92717"
         y="141.18961"
         id="tspan10782-5">Right </tspan><tspan
         sodipodi:role="line"
         style="font-size:5.64444px;text-align:center;text-anchor:middle;stroke-width:0.264583"
         x="177.92717"
         y="148.24515"
         id="tspan10784-3">Speaker</tspan></text>
    <path
       style="fill:none;stroke:#000000;stroke-width:0.264583px;stroke-linecap:butt;stroke-linejoin:miter;stroke-opacity:1"
       d="m 29.956865,158.89008 -5.040384,11.24511"
       id="path14444" />
    <path
       style="fill:none;stroke:#000000;stroke-width:0.264583px;stroke-linecap:butt;stroke-linejoin:miter;stroke-opacity:1"
       d="m 38.228496,159.19682 v 11.27426"
       id="path14446" />
    <path
       style="fill:none;stroke:#000000;stroke-width:0.264583px;stroke-linecap:butt;stroke-linejoin:miter;stroke-opacity:1"
       d="m 45.517048,158.18413 4.744836,9.75534"
       id="path14448" />
    <path
       style="fill:none;stroke:#000000;stroke-width:0.264583px;stroke-linecap:butt;stroke-linejoin:miter;stroke-opacity:1"
       d="m 170.26404,157.65704 -5.04038,11.24511"
       id="path14444-5" />
    <path
       style="fill:none;stroke:#000000;stroke-width:0.264583px;stroke-linecap:butt;stroke-linejoin:miter;stroke-opacity:1"
       d="m 178.53567,157.96378 v 11.27426"
       id="path14446-6" />
    <path
       style="fill:none;stroke:#000000;stroke-width:0.264583px;stroke-linecap:butt;stroke-linejoin:miter;stroke-opacity:1"
       d="m 185.82422,156.95109 4.74484,9.75534"
       id="path14448-2" />
    <rect
       style="fill:none;fill-opacity:1;stroke:#000000;stroke-width:1.07629;stroke-opacity:1"
       id="rect14591"
       width="37.023708"
       height="24.323706"
       x="89.438148"
       y="51.338146" />
    <rect
       style="fill:none;fill-opacity:1;stroke:#000000;stroke-width:1.07629;stroke-opacity:1"
       id="rect14591-7"
       width="37.023708"
       height="24.323706"
       x="41.534351"
       y="56.631416" />
    <rect
       style="fill:none;fill-opacity:1;stroke:#000000;stroke-width:0.765;stroke-opacity:1"
       id="rect14867"
       width="3.1229994"
       height="12.006515"
       x="97.511055"
       y="86.397461" />
    <ellipse
       style="fill:none;fill-opacity:1;stroke:#000000;stroke-width:0.765;stroke-opacity:1"
       id="path14891"
       cx="99.050125"
       cy="84.585732"
       rx="2.1764901"
       ry="2.4321699" />
    <rect
       style="fill:none;fill-opacity:1;stroke:#000000;stroke-width:0.765;stroke-opacity:1"
       id="rect14867-0"
       width="3.1229994"
       height="12.006515"
       x="111.95686"
       y="86.357071" />
    <ellipse
       style="fill:none;fill-opacity:1;stroke:#000000;stroke-width:0.765;stroke-opacity:1"
       id="path14891-9"
       cx="113.49593"
       cy="84.545341"
       rx="2.1764901"
       ry="2.4321699" />
    <rect
       style="fill:none;fill-opacity:1;stroke:#000000;stroke-width:1.07787;stroke-opacity:1"
       id="rect15937"
       width="30.672131"
       height="6.5421324"
       x="127.53893"
       y="89.438934" />
    <rect
       style="fill:none;fill-opacity:1;stroke:#000000;stroke-width:0.958791;stroke-opacity:1"
       id="rect15939"
       width="37.141209"
       height="16.199238"
       x="133.82939"
       y="63.979397" />
    <path
       style="fill:none;stroke:#808080;stroke-width:0.264583px;stroke-linecap:butt;stroke-linejoin:miter;stroke-opacity:1"
       d="m 113.56478,98.676199 c 0.33193,0.332775 0.18129,0.996167 0.46983,1.281288 0.24797,0.245033 0.73327,0.313853 1.05752,0.435453 0.07,0.0262 0.1172,0.0966 0.18662,0.12441 0.14706,0.0588 0.34329,0.0365 0.49765,0.0622 0.2408,0.0401 0.50832,0.13898 0.74648,0.18662 0.16463,0.0329 0.42779,0.0344 0.62207,0.0622 0.5963,0.0852 1.31772,0.007 1.92842,0.0622 1.85777,0.16889 3.82523,0.12171 5.67092,-0.0622 0.17014,-0.017 0.32751,-0.1074 0.49765,-0.12442 0.1857,-0.0186 0.37468,0.0232 0.55986,0 0.40061,-0.0501 0.78243,-0.18767 1.18194,-0.24882 0.82748,-0.12666 1.70563,-0.23332 2.50395,-0.499426 1.03891,-0.346302 2.07085,-0.817546 3.04975,-1.307422 0.16189,-0.08101 0.40743,-0.139719 0.56094,-0.249367 0.53897,-0.384974 1.00064,-1.003298 1.36856,-1.555176 0.13225,-0.198374 0.14386,-0.392687 0.31031,-0.559141"
       id="path16540" />
    <path
       style="fill:none;stroke:#808080;stroke-width:0.264583px;stroke-linecap:butt;stroke-linejoin:miter;stroke-opacity:1"
       d="m 98.789933,98.752447 c 0.249063,0.112414 0.264946,0.448757 0.471334,0.603549 0.10871,0.08153 0.185579,0.06168 0.311037,0.124415 0.581566,0.290782 1.148266,0.606879 1.769086,0.822559 1.0125,0.35176 2.11437,0.58042 3.16529,0.77867 0.58068,0.10955 1.1835,0.12612 1.75915,0.27003 1.36442,0.34109 2.8028,0.42925 4.20366,0.51884 0.26907,-0.14973 0.45423,0.0957 0.68427,0.12441 0.2981,0.0373 0.63242,0 0.9331,0 1.14998,0 2.33497,-0.0903 3.48025,0 0.64239,0.0506 1.27297,0.19471 1.91083,0.25849 0.4241,0.0424 0.88012,0 1.30635,0 0.95323,0 1.90646,0 2.85969,0 1.74183,0 3.48367,0 5.22549,0 0.68091,0 1.34343,-0.001 2.01891,-0.0622 0.16522,-0.0149 0.33449,0.0299 0.49765,0 0.15349,-0.0281 0.29604,-0.1044 0.45027,-0.12811 0.65976,-0.10143 1.47501,0.0203 2.16412,-0.0654 0.19304,-0.024 0.37663,-0.102 0.56946,-0.12761 0.36265,-0.0482 0.71469,-0.0162 1.07534,-0.12442 1.08002,-0.324 2.05789,-0.78338 2.99437,-1.40733 0.48621,-0.32395 0.98832,-0.644834 1.49628,-0.935097 0.51652,-0.295154 1.08898,-0.559695 1.55518,-0.933104 0.32698,-0.261905 0.63856,-0.576349 0.93539,-0.87318 0.57159,-0.57159 0.68786,-0.629888 0.9331,-1.365618 0.0749,-0.224811 0.0622,0.05913 0.0622,-0.116216"
       id="path16542" />
    <path
       style="fill:#4d4d4d;stroke:#808080;stroke-width:1.14299px;stroke-linecap:butt;stroke-linejoin:miter;stroke-opacity:1"
       d="m 154.65228,89.475896 -0.12702,-9.694052"
       id="path16585" />
    <path
       style="fill:#4d4d4d;stroke:#808080;stroke-width:1.22778px;stroke-linecap:butt;stroke-linejoin:miter;stroke-opacity:1"
       d="m 155.28435,63.794512 -0.0422,-33.649669"
       id="path16585-9" />
    <rect
       style="fill:none;fill-opacity:1;stroke:#000000;stroke-width:0.732985;stroke-opacity:1"
       id="rect17233"
       width="164.36702"
       height="10.641718"
       x="25.766493"
       y="19.416492" />
    <text
       xml:space="preserve"
       style="font-style:normal;font-weight:normal;font-size:5.64444px;line-height:1.25;font-family:sans-serif;fill:#000000;fill-opacity:1;stroke:none;stroke-width:0.264583"
       x="164.97942"
       y="51.188477"
       id="text5596-9-3-20-5"><tspan
         sodipodi:role="line"
         style="font-size:5.64444px;text-align:center;text-anchor:middle;stroke-width:0.264583"
         x="164.97942"
         y="51.188477"
         id="tspan10784-7-6-2-9">HDMI</tspan></text>
    <rect
       style="fill:none;fill-opacity:1;stroke:#000000;stroke-width:0.765;stroke-opacity:1"
       id="rect25662"
       width="19.076216"
       height="19.337845"
       x="180.71968"
       y="97.942795" />
    <path
       style="fill:none;stroke:#808080;stroke-width:0.264583px;stroke-linecap:butt;stroke-linejoin:miter;stroke-opacity:1"
       d="m 152.89156,96.505349 c 0.24956,0.124415 0.51651,0.218773 0.74867,0.373242 0.10288,0.06845 0.48436,0.507315 0.62207,0.62207 0.72204,0.6017 1.38439,1.281692 2.11504,1.866209 0.76844,0.614757 1.86817,1.2084 2.79044,1.52314 0.24188,0.0825 0.51599,0.0399 0.75607,0.12756 0.23068,0.0842 0.39866,0.30163 0.63166,0.37924 0.28764,0.0958 0.60278,0.0714 0.90005,0.131 1.23054,0.2466 2.4751,0.64278 3.73264,0.74652 2.05911,0.16987 4.13252,0.127 6.20011,0.127 1.24793,0 2.56935,0.12443 3.81336,0 0.6244,-0.0625 1.24209,-0.18645 1.8665,-0.24889 0.8385,-0.0838 2.27698,-0.12707 3.16646,0 0.96162,0.13737 0.0704,0.12441 0.4962,0.12441"
       id="path26400" />
    <path
       style="fill:none;stroke:#808080;stroke-width:0.264583px;stroke-linecap:butt;stroke-linejoin:miter;stroke-opacity:1"
       d="m 148.51082,96.73479 c 0.1534,0.293645 0.3401,0.57217 0.4602,0.880933 0.0767,0.19708 0.0574,0.421505 0.12441,0.62207 0.53846,1.611638 1.70537,3.285327 2.74412,4.620867 0.41081,0.52818 0.78785,1.10583 1.36856,1.49297 0.10911,0.0727 0.26078,0.0569 0.37324,0.12441 0.10058,0.0603 0.14391,0.19637 0.24883,0.24883 1.80116,0.90058 3.0909,0.82978 5.01715,1.12636 0.97889,0.15072 1.9699,0.41169 2.95321,0.51002 1.78542,0.17854 3.58044,0.21951 5.37148,0.37324 0.73001,0.0627 1.44777,0.32656 2.17523,0.38719 0.4546,0.0379 0.91589,-0.0566 1.36855,0 2.7224,0.34029 5.58209,0.45853 8.2548,1.12671 0.71259,0.17814 1.43199,-0.12442 2.12117,-0.12442"
       id="path26402" />
    <path
       style="fill:none;stroke:#000000;stroke-width:0.264583px;stroke-linecap:butt;stroke-linejoin:miter;stroke-opacity:1"
       d="m 189.5094,117.2895 c -5.02192,5.78924 -138.967047,9.96814 -138.967047,9.96814"
       id="path26553" />
    <path
       style="fill:none;stroke:#000000;stroke-width:0.264583px;stroke-linecap:butt;stroke-linejoin:miter;stroke-opacity:1"
       d="m 194.94873,117.3646 c 0,0 -0.17723,5.51378 -3.51236,6.18884 -3.33514,0.67505 -12.28032,3.78145 -12.28032,3.78145"
       id="path26555" />
    <path
       style="fill:none;stroke:#000000;stroke-width:0.264583px;stroke-linecap:butt;stroke-linejoin:miter;stroke-opacity:1"
       d="m 189.5094,117.2895 c 0,0 -106.281507,7.85784 -108.750032,5.30313 C 78.29084,120.03792 63.607714,81.767957 63.607714,81.767957"
       id="path27498" />
    <text
       xml:space="preserve"
       style="font-style:normal;font-weight:normal;font-size:4.93889px;line-height:1.25;font-family:sans-serif;fill:#000000;fill-opacity:1;stroke:none;stroke-width:0.264583"
       x="16.788275"
       y="185.89832"
       id="text31830"><tspan
         sodipodi:role="line"
         style="font-size:4.93889px;stroke-width:0.264583"
         x="16.788275"
         y="185.89832"
         id="tspan40658">Two microphones required, SM81 or KM 184 or similar</tspan><tspan
         sodipodi:role="line"
         style="font-size:4.93889px;stroke-width:0.264583"
         x="16.788275"
         y="192.07193"
         id="tspan40662">        first pointed towards guitar sound hole </tspan><tspan
         sodipodi:role="line"
         style="font-size:4.93889px;stroke-width:0.264583"
         x="16.788275"
         y="198.24554"
         id="tspan48206">        second pointed towards 10th fret</tspan><tspan
         sodipodi:role="line"
         style="font-size:4.93889px;stroke-width:0.264583"
         x="16.788275"
         y="204.41916"
         id="tspan48208">Microphones routed to an interface - ex. Scarlett 2i2</tspan><tspan
         sodipodi:role="line"
         style="font-size:4.93889px;stroke-width:0.264583"
         x="16.788275"
         y="210.59276"
         id="tspan58712">USB from interface to personal computer</tspan><tspan
         sodipodi:role="line"
         style="font-size:4.93889px;stroke-width:0.264583"
         x="16.788275"
         y="216.76637"
         id="tspan58714">Computer sends HDMI (video only) to television or projector</tspan><tspan
         sodipodi:role="line"
         style="font-size:4.93889px;stroke-width:0.264583"
         x="16.788275"
         y="222.93999"
         id="tspan61602">Computer sends processed live audio and samples back to the interface</tspan><tspan
         sodipodi:role="line"
         style="font-size:4.93889px;stroke-width:0.264583"
         x="16.788275"
         y="229.1136"
         id="tspan62290">Interface output is sent to house mix</tspan><tspan
         sodipodi:role="line"
         style="font-size:4.93889px;stroke-width:0.264583"
         x="16.788275"
         y="235.28722"
         id="tspan69078">Optionally, I would like to monitor the house mix with an in-ear monitor</tspan><tspan
         sodipodi:role="line"
         style="font-size:4.93889px;stroke-width:0.264583"
         x="16.788275"
         y="241.46083"
         id="tspan69084" /><tspan
         sodipodi:role="line"
         style="font-size:4.93889px;stroke-width:0.264583"
         x="16.788275"
         y="247.63445"
         id="tspan69086">This is not pictured above, but it may be useful to send the pre-processed</tspan><tspan
         sodipodi:role="line"
         style="font-size:4.93889px;stroke-width:0.264583"
         x="16.788275"
         y="253.80806"
         id="tspan69090">microphone sends to the house mix as well. They may not be needed,</tspan><tspan
         sodipodi:role="line"
         style="font-size:4.93889px;stroke-width:0.264583"
         x="16.788275"
         y="259.98166"
         id="tspan69094">depending on the space</tspan></text>
  </g>
</svg>
